<svg width="27" height="26" viewBox="0 0 27 26" fill="none" xmlns="http://www.w3.org/2000/svg">
<path fill-rule="evenodd" clip-rule="evenodd" d="M0.5 6.125C0.5 3.0184 3.0184 0.5 6.125 0.5H13C15.7614 0.5 18 2.73857 18 5.5V6.75C18 7.44035 17.4404 8 16.75 8C16.0596 8 15.5 7.44035 15.5 6.75V5.5C15.5 4.11929 14.3807 3 13 3H6.125C4.39911 3 3 4.39911 3 6.125V19.875C3 21.6009 4.39911 23 6.125 23H13C14.3807 23 15.5 21.8807 15.5 20.5V19.25C15.5 18.5596 16.0596 18 16.75 18C17.4404 18 18 18.5596 18 19.25V20.5C18 23.2614 15.7614 25.5 13 25.5H6.125C3.0184 25.5 0.5 22.9816 0.5 19.875V6.125ZM20.8661 8.36611C21.3542 7.87796 22.1457 7.87796 22.6339 8.36611L26.3839 12.1161C26.872 12.6042 26.872 13.3957 26.3839 13.8839L22.6339 17.6339C22.1457 18.122 21.3542 18.122 20.8661 17.6339C20.378 17.1457 20.378 16.3542 20.8661 15.8661L22.4822 14.25H11.75C11.0596 14.25 10.5 13.6904 10.5 13C10.5 12.3096 11.0596 11.75 11.75 11.75H22.4822L20.8661 10.1339C20.378 9.64572 20.378 8.85427 20.8661 8.36611Z" fill="#A15C38"/>
</svg>
