<svg width="20" height="25" viewBox="0 0 20 25" fill="none" xmlns="http://www.w3.org/2000/svg">
<path fill-rule="evenodd" clip-rule="evenodd" d="M10 3.25C7.92887 3.25 6.25 4.92894 6.25 7C6.25 9.07106 7.92887 10.75 10 10.75C12.0711 10.75 13.75 9.07106 13.75 7C13.75 4.92894 12.0711 3.25 10 3.25ZM3.75 7C3.75 3.54822 6.54822 0.75 10 0.75C13.4517 0.75 16.25 3.54822 16.25 7C16.25 10.4517 13.4517 13.25 10 13.25C6.54822 13.25 3.75 10.4517 3.75 7ZM4.32011 17.908C3.0023 18.4932 2.5 19.2323 2.5 20.125C2.5 20.4045 2.5497 20.5627 2.6216 20.6775C2.69354 20.7922 2.86518 20.9866 3.32774 21.1959C4.3164 21.6431 6.27011 22 10 22C13.7299 22 15.6836 21.6431 16.6722 21.1959C17.1349 20.9866 17.3065 20.7922 17.3784 20.6775C17.4503 20.5627 17.5 20.4045 17.5 20.125C17.5 19.2323 16.9977 18.4932 15.6799 17.908C14.3267 17.3073 12.3403 17 10 17C7.65975 17 5.67321 17.3073 4.32011 17.908ZM3.30553 15.6232C5.1193 14.8177 7.50775 14.5 10 14.5C12.4923 14.5 14.8808 14.8177 16.6945 15.6232C18.5435 16.4442 20 17.8927 20 20.125C20 20.7084 19.8935 21.3722 19.4966 22.0054C19.0997 22.6382 18.4901 23.1174 17.7028 23.4736C16.1914 24.1574 13.7701 24.5 10 24.5C6.22989 24.5 3.8086 24.1574 2.29726 23.4736C1.50983 23.1174 0.900212 22.6382 0.5034 22.0054C0.10655 21.3722 0 20.7084 0 20.125C0 17.8927 1.45645 16.4442 3.30553 15.6232Z" fill="#754329"/>
</svg>
