<svg width="23" height="26" viewBox="0 0 23 26" fill="none" xmlns="http://www.w3.org/2000/svg">
<path fill-rule="evenodd" clip-rule="evenodd" d="M5 5.5C5 2.73857 7.23857 0.5 10 0.5H16.875C19.9816 0.5 22.5 3.0184 22.5 6.125V19.875C22.5 22.9816 19.9816 25.5 16.875 25.5H10C7.23857 25.5 5 23.2614 5 20.5V19.25C5 18.5596 5.55965 18 6.25 18C6.94035 18 7.5 18.5596 7.5 19.25V20.5C7.5 21.8807 8.61925 23 10 23H16.875C18.6009 23 20 21.6009 20 19.875V6.125C20 4.39911 18.6009 3 16.875 3H10C8.61925 3 7.5 4.11929 7.5 5.5V6.75C7.5 7.44035 6.94035 8 6.25 8C5.55965 8 5 7.44035 5 6.75V5.5ZM10.3661 8.36611C10.8542 7.87796 11.6458 7.87796 12.1339 8.36611L15.8839 12.1161C16.372 12.6042 16.372 13.3957 15.8839 13.8839L12.1339 17.6339C11.6458 18.122 10.8542 18.122 10.3661 17.6339C9.878 17.1457 9.878 16.3542 10.3661 15.8661L11.9823 14.25H1.25C0.55965 14.25 0 13.6904 0 13C0 12.3096 0.55965 11.75 1.25 11.75H11.9823L10.3661 10.1339C9.878 9.64572 9.878 8.85427 10.3661 8.36611Z" fill="#A15C38"/>
</svg>
