<svg width="26" height="26" viewBox="0 0 26 26" fill="none" xmlns="http://www.w3.org/2000/svg">
<path fill-rule="evenodd" clip-rule="evenodd" d="M25.5 13C25.5 19.9035 19.9035 25.5 13 25.5C6.09644 25.5 0.5 19.9035 0.5 13C0.5 6.09644 6.09644 0.5 13 0.5C19.9035 0.5 25.5 6.09644 25.5 13ZM13.4479 9.72805C12.2321 10.2337 9.80221 11.2804 6.15821 12.868C5.56647 13.1034 5.2565 13.3336 5.22829 13.5586C5.1806 13.9391 5.65699 14.0889 6.30569 14.2929C6.39394 14.3206 6.48536 14.3494 6.57909 14.3797C7.21731 14.5872 8.07585 14.83 8.52216 14.8396C8.92701 14.8484 9.37887 14.6815 9.87774 14.3389C13.2825 12.0406 15.04 10.879 15.1502 10.8539C15.2281 10.8362 15.336 10.814 15.4091 10.879C15.4822 10.944 15.475 11.067 15.4672 11.1C15.4201 11.3012 13.5501 13.0397 12.5824 13.9394C12.2807 14.2199 12.0667 14.4187 12.023 14.4642C11.925 14.566 11.8251 14.6622 11.7291 14.7547C11.1362 15.3264 10.6915 15.755 11.7537 16.455C12.2642 16.7914 12.6726 17.0695 13.0801 17.347C13.5251 17.6501 13.969 17.9524 14.5434 18.3289C14.6896 18.4247 14.8294 18.5244 14.9655 18.6214C15.4834 18.9906 15.9486 19.3224 16.5235 19.2694C16.8575 19.2387 17.2025 18.9246 17.3777 17.9879C17.7919 15.7741 18.6059 10.9775 18.794 9.00101C18.8105 8.82785 18.7897 8.60623 18.7731 8.50894C18.7564 8.41165 18.7216 8.27302 18.5951 8.17041C18.4454 8.04889 18.2142 8.02326 18.1107 8.025C17.6406 8.03337 16.9192 8.28419 13.4479 9.72805Z" fill="#F7F1F0"/>
</svg>
